<mxfile host="app.diagrams.net" modified="2024-01-19T17:59:04.420Z" agent="Mozilla/5.0 (Windows NT 10.0; Win64; x64) AppleWebKit/537.36 (KHTML, like Gecko) Chrome/120.0.0.0 Safari/537.36 Edg/120.0.0.0" etag="k4-g8LwPmdKyx1dewKcT" version="22.1.19" type="device" pages="2">
  <diagram name="Sequence Diagram - Booking" id="XZFIXnpFPiLSW5xU1wdv">
    <mxGraphModel dx="1863" dy="674" grid="1" gridSize="10" guides="1" tooltips="1" connect="1" arrows="1" fold="1" page="1" pageScale="1" pageWidth="850" pageHeight="1100" math="0" shadow="0">
      <root>
        <mxCell id="0" />
        <mxCell id="1" parent="0" />
        <mxCell id="l8tHV9ch15DjAhhwgpem-18" value="" style="image;aspect=fixed;perimeter=ellipsePerimeter;html=1;align=center;shadow=0;dashed=0;spacingTop=3;image=img/lib/active_directory/windows_server.svg;" vertex="1" parent="1">
          <mxGeometry x="309.5" y="305" width="41" height="50" as="geometry" />
        </mxCell>
        <mxCell id="l8tHV9ch15DjAhhwgpem-31" value="" style="image;sketch=0;aspect=fixed;html=1;points=[];align=center;fontSize=12;image=img/lib/mscae/Person.svg;" vertex="1" parent="1">
          <mxGeometry x="-179.8" y="310" width="29.6" height="40" as="geometry" />
        </mxCell>
        <mxCell id="l8tHV9ch15DjAhhwgpem-32" value="" style="sketch=0;outlineConnect=0;fontColor=#232F3E;gradientColor=none;fillColor=#232F3D;strokeColor=none;dashed=0;verticalLabelPosition=bottom;verticalAlign=top;align=center;html=1;fontSize=12;fontStyle=0;aspect=fixed;pointerEvents=1;shape=mxgraph.aws4.client;" vertex="1" parent="1">
          <mxGeometry x="-39.80000000000001" y="310" width="41.06" height="40" as="geometry" />
        </mxCell>
        <mxCell id="l8tHV9ch15DjAhhwgpem-33" value="" style="verticalLabelPosition=bottom;html=1;verticalAlign=top;align=center;strokeColor=none;fillColor=#00BEF2;shape=mxgraph.azure.service_bus_queues;pointerEvents=1;" vertex="1" parent="1">
          <mxGeometry x="457.5" y="305" width="42.5" height="50" as="geometry" />
        </mxCell>
        <mxCell id="l8tHV9ch15DjAhhwgpem-34" value="" style="image;aspect=fixed;perimeter=ellipsePerimeter;html=1;align=center;shadow=0;dashed=0;spacingTop=3;image=img/lib/active_directory/windows_server.svg;" vertex="1" parent="1">
          <mxGeometry x="609.5" y="300" width="41" height="50" as="geometry" />
        </mxCell>
        <mxCell id="l8tHV9ch15DjAhhwgpem-35" value="" style="image;aspect=fixed;perimeter=ellipsePerimeter;html=1;align=center;shadow=0;dashed=0;spacingTop=3;image=img/lib/active_directory/database_server.svg;" vertex="1" parent="1">
          <mxGeometry x="739.5" y="300" width="41" height="50" as="geometry" />
        </mxCell>
        <mxCell id="l8tHV9ch15DjAhhwgpem-41" value="" style="verticalLabelPosition=bottom;verticalAlign=top;html=1;shape=mxgraph.basic.patternFillRect;fillStyle=diagRev;step=5;fillStrokeWidth=0.2;fillStrokeColor=#dddddd;container=1;" vertex="1" parent="1">
          <mxGeometry x="90" y="10" width="630" height="220" as="geometry" />
        </mxCell>
        <mxCell id="l8tHV9ch15DjAhhwgpem-19" value="" style="verticalLabelPosition=bottom;html=1;verticalAlign=top;align=center;strokeColor=none;fillColor=#00BEF2;shape=mxgraph.azure.service_bus_queues;pointerEvents=1;" vertex="1" parent="l8tHV9ch15DjAhhwgpem-41">
          <mxGeometry x="59.99999999999997" y="40" width="42.5" height="50" as="geometry" />
        </mxCell>
        <mxCell id="l8tHV9ch15DjAhhwgpem-20" value="" style="image;aspect=fixed;perimeter=ellipsePerimeter;html=1;align=center;shadow=0;dashed=0;spacingTop=3;image=img/lib/active_directory/windows_server.svg;" vertex="1" parent="l8tHV9ch15DjAhhwgpem-41">
          <mxGeometry x="59.99999999999997" y="110" width="41" height="50" as="geometry" />
        </mxCell>
        <mxCell id="l8tHV9ch15DjAhhwgpem-21" value="Service Queue" style="text;html=1;align=center;verticalAlign=middle;resizable=0;points=[];autosize=1;strokeColor=none;fillColor=none;" vertex="1" parent="l8tHV9ch15DjAhhwgpem-41">
          <mxGeometry x="129.99999999999997" y="50" width="100" height="30" as="geometry" />
        </mxCell>
        <mxCell id="l8tHV9ch15DjAhhwgpem-22" value="Server" style="text;html=1;align=center;verticalAlign=middle;resizable=0;points=[];autosize=1;strokeColor=none;fillColor=none;" vertex="1" parent="l8tHV9ch15DjAhhwgpem-41">
          <mxGeometry x="129.99999999999997" y="120" width="60" height="30" as="geometry" />
        </mxCell>
        <mxCell id="l8tHV9ch15DjAhhwgpem-23" value="" style="image;aspect=fixed;perimeter=ellipsePerimeter;html=1;align=center;shadow=0;dashed=0;spacingTop=3;image=img/lib/active_directory/database_server.svg;" vertex="1" parent="l8tHV9ch15DjAhhwgpem-41">
          <mxGeometry x="289.47" y="40" width="41" height="50" as="geometry" />
        </mxCell>
        <mxCell id="l8tHV9ch15DjAhhwgpem-24" value="Database" style="text;html=1;align=center;verticalAlign=middle;resizable=0;points=[];autosize=1;strokeColor=none;fillColor=none;" vertex="1" parent="l8tHV9ch15DjAhhwgpem-41">
          <mxGeometry x="358.47" y="50" width="70" height="30" as="geometry" />
        </mxCell>
        <mxCell id="l8tHV9ch15DjAhhwgpem-26" value="" style="sketch=0;outlineConnect=0;fontColor=#232F3E;gradientColor=none;fillColor=#232F3D;strokeColor=none;dashed=0;verticalLabelPosition=bottom;verticalAlign=top;align=center;html=1;fontSize=12;fontStyle=0;aspect=fixed;pointerEvents=1;shape=mxgraph.aws4.client;" vertex="1" parent="l8tHV9ch15DjAhhwgpem-41">
          <mxGeometry x="283.47" y="115" width="41.06" height="40" as="geometry" />
        </mxCell>
        <mxCell id="l8tHV9ch15DjAhhwgpem-27" value="Client UI" style="text;html=1;align=center;verticalAlign=middle;resizable=0;points=[];autosize=1;strokeColor=none;fillColor=none;" vertex="1" parent="l8tHV9ch15DjAhhwgpem-41">
          <mxGeometry x="358.47" y="120" width="70" height="30" as="geometry" />
        </mxCell>
        <mxCell id="l8tHV9ch15DjAhhwgpem-28" value="" style="image;sketch=0;aspect=fixed;html=1;points=[];align=center;fontSize=12;image=img/lib/mscae/Person.svg;" vertex="1" parent="l8tHV9ch15DjAhhwgpem-41">
          <mxGeometry x="488.47" y="45" width="29.6" height="40" as="geometry" />
        </mxCell>
        <mxCell id="l8tHV9ch15DjAhhwgpem-29" value="User" style="text;html=1;align=center;verticalAlign=middle;resizable=0;points=[];autosize=1;strokeColor=none;fillColor=none;" vertex="1" parent="l8tHV9ch15DjAhhwgpem-41">
          <mxGeometry x="551.24" y="50" width="50" height="30" as="geometry" />
        </mxCell>
        <mxCell id="LoOViEUm-bCQS_mqGskE-2" value="" style="sketch=0;outlineConnect=0;fontColor=#232F3E;gradientColor=none;fillColor=#8C4FFF;strokeColor=none;dashed=0;verticalLabelPosition=bottom;verticalAlign=top;align=center;html=1;fontSize=12;fontStyle=0;aspect=fixed;pointerEvents=1;shape=mxgraph.aws4.gateway;" vertex="1" parent="l8tHV9ch15DjAhhwgpem-41">
          <mxGeometry x="478.90999999999997" y="110" width="48.72" height="50" as="geometry" />
        </mxCell>
        <mxCell id="LoOViEUm-bCQS_mqGskE-3" value="Gateway" style="text;html=1;align=center;verticalAlign=middle;resizable=0;points=[];autosize=1;strokeColor=none;fillColor=none;" vertex="1" parent="l8tHV9ch15DjAhhwgpem-41">
          <mxGeometry x="551.24" y="121" width="70" height="30" as="geometry" />
        </mxCell>
        <mxCell id="l8tHV9ch15DjAhhwgpem-48" value="User" style="text;html=1;align=center;verticalAlign=middle;resizable=0;points=[];autosize=1;strokeColor=none;fillColor=none;" vertex="1" parent="1">
          <mxGeometry x="-190" y="351" width="50" height="30" as="geometry" />
        </mxCell>
        <mxCell id="l8tHV9ch15DjAhhwgpem-49" value="Client UI" style="text;html=1;align=center;verticalAlign=middle;resizable=0;points=[];autosize=1;strokeColor=none;fillColor=none;" vertex="1" parent="1">
          <mxGeometry x="-54.26999999999998" y="351" width="70" height="30" as="geometry" />
        </mxCell>
        <mxCell id="l8tHV9ch15DjAhhwgpem-50" value="Database" style="text;html=1;align=center;verticalAlign=middle;resizable=0;points=[];autosize=1;strokeColor=none;fillColor=none;" vertex="1" parent="1">
          <mxGeometry x="725" y="352" width="70" height="30" as="geometry" />
        </mxCell>
        <mxCell id="l8tHV9ch15DjAhhwgpem-51" value="RabbitMQ" style="text;html=1;align=center;verticalAlign=middle;resizable=0;points=[];autosize=1;strokeColor=none;fillColor=none;" vertex="1" parent="1">
          <mxGeometry x="438.75" y="350" width="80" height="30" as="geometry" />
        </mxCell>
        <mxCell id="l8tHV9ch15DjAhhwgpem-52" value="Booking Service" style="text;html=1;align=center;verticalAlign=middle;resizable=0;points=[];autosize=1;strokeColor=none;fillColor=none;" vertex="1" parent="1">
          <mxGeometry x="275" y="352" width="110" height="30" as="geometry" />
        </mxCell>
        <mxCell id="l8tHV9ch15DjAhhwgpem-53" value="Coupon Service" style="text;html=1;align=center;verticalAlign=middle;resizable=0;points=[];autosize=1;strokeColor=none;fillColor=none;" vertex="1" parent="1">
          <mxGeometry x="571.73" y="350" width="110" height="30" as="geometry" />
        </mxCell>
        <mxCell id="l8tHV9ch15DjAhhwgpem-56" value="" style="endArrow=none;dashed=1;html=1;dashPattern=1 3;strokeWidth=2;rounded=0;" edge="1" parent="1">
          <mxGeometry width="50" height="50" relative="1" as="geometry">
            <mxPoint x="-19.30000000000001" y="1440" as="sourcePoint" />
            <mxPoint x="-19.610000000000014" y="392" as="targetPoint" />
          </mxGeometry>
        </mxCell>
        <mxCell id="l8tHV9ch15DjAhhwgpem-57" value="" style="endArrow=none;dashed=1;html=1;dashPattern=1 3;strokeWidth=2;rounded=0;" edge="1" parent="1">
          <mxGeometry width="50" height="50" relative="1" as="geometry">
            <mxPoint x="330" y="1440" as="sourcePoint" />
            <mxPoint x="330" y="400" as="targetPoint" />
          </mxGeometry>
        </mxCell>
        <mxCell id="l8tHV9ch15DjAhhwgpem-58" value="" style="endArrow=none;dashed=1;html=1;dashPattern=1 3;strokeWidth=2;rounded=0;" edge="1" parent="1">
          <mxGeometry width="50" height="50" relative="1" as="geometry">
            <mxPoint x="480" y="1440" as="sourcePoint" />
            <mxPoint x="480" y="400" as="targetPoint" />
          </mxGeometry>
        </mxCell>
        <mxCell id="l8tHV9ch15DjAhhwgpem-59" value="" style="endArrow=none;dashed=1;html=1;dashPattern=1 3;strokeWidth=2;rounded=0;" edge="1" parent="1">
          <mxGeometry width="50" height="50" relative="1" as="geometry">
            <mxPoint x="620" y="1440" as="sourcePoint" />
            <mxPoint x="623" y="396" as="targetPoint" />
          </mxGeometry>
        </mxCell>
        <mxCell id="l8tHV9ch15DjAhhwgpem-60" value="" style="endArrow=none;dashed=1;html=1;dashPattern=1 3;strokeWidth=2;rounded=0;" edge="1" parent="1">
          <mxGeometry width="50" height="50" relative="1" as="geometry">
            <mxPoint x="760" y="1440" as="sourcePoint" />
            <mxPoint x="757.66" y="394" as="targetPoint" />
          </mxGeometry>
        </mxCell>
        <mxCell id="l8tHV9ch15DjAhhwgpem-66" value="" style="endArrow=none;dashed=1;html=1;dashPattern=1 3;strokeWidth=2;rounded=0;" edge="1" parent="1">
          <mxGeometry width="50" height="50" relative="1" as="geometry">
            <mxPoint x="-169.3" y="1440" as="sourcePoint" />
            <mxPoint x="-169.3" y="400" as="targetPoint" />
          </mxGeometry>
        </mxCell>
        <mxCell id="l8tHV9ch15DjAhhwgpem-67" value="" style="endArrow=classic;html=1;rounded=0;" edge="1" parent="1">
          <mxGeometry width="50" height="50" relative="1" as="geometry">
            <mxPoint x="-159.3" y="430" as="sourcePoint" />
            <mxPoint x="-29.30000000000001" y="430" as="targetPoint" />
          </mxGeometry>
        </mxCell>
        <mxCell id="l8tHV9ch15DjAhhwgpem-68" value="" style="rounded=0;whiteSpace=wrap;html=1;direction=south;fillColor=#dae8fc;strokeColor=#6c8ebf;" vertex="1" parent="1">
          <mxGeometry x="-25.30000000000001" y="423" width="10.7" height="127" as="geometry" />
        </mxCell>
        <mxCell id="l8tHV9ch15DjAhhwgpem-69" value="" style="endArrow=classic;html=1;rounded=0;" edge="1" parent="1">
          <mxGeometry width="50" height="50" relative="1" as="geometry">
            <mxPoint x="-11.600000000000023" y="453" as="sourcePoint" />
            <mxPoint x="-11.300000000000011" y="520" as="targetPoint" />
            <Array as="points">
              <mxPoint x="30.69999999999999" y="453" />
              <mxPoint x="30.69999999999999" y="520" />
            </Array>
          </mxGeometry>
        </mxCell>
        <mxCell id="l8tHV9ch15DjAhhwgpem-70" value="Action Booking" style="text;html=1;align=center;verticalAlign=middle;resizable=0;points=[];autosize=1;strokeColor=none;fillColor=none;" vertex="1" parent="1">
          <mxGeometry x="-147.3" y="404" width="100" height="30" as="geometry" />
        </mxCell>
        <mxCell id="l8tHV9ch15DjAhhwgpem-71" value="Validate Input&lt;br&gt;information" style="text;html=1;align=center;verticalAlign=middle;resizable=0;points=[];autosize=1;strokeColor=none;fillColor=none;" vertex="1" parent="1">
          <mxGeometry x="-16.600000000000023" y="416" width="100" height="40" as="geometry" />
        </mxCell>
        <mxCell id="l8tHV9ch15DjAhhwgpem-72" value="" style="rounded=0;whiteSpace=wrap;html=1;direction=south;fillColor=#dae8fc;strokeColor=#6c8ebf;" vertex="1" parent="1">
          <mxGeometry x="324.65" y="539" width="10.7" height="301" as="geometry" />
        </mxCell>
        <mxCell id="l8tHV9ch15DjAhhwgpem-73" value="" style="endArrow=classic;html=1;rounded=0;" edge="1" parent="1">
          <mxGeometry width="50" height="50" relative="1" as="geometry">
            <mxPoint x="160" y="635" as="sourcePoint" />
            <mxPoint x="324.65" y="636" as="targetPoint" />
          </mxGeometry>
        </mxCell>
        <mxCell id="l8tHV9ch15DjAhhwgpem-74" value="Redirect create &lt;br&gt;booking request" style="text;html=1;align=center;verticalAlign=middle;resizable=0;points=[];autosize=1;strokeColor=none;fillColor=none;" vertex="1" parent="1">
          <mxGeometry x="177.98000000000002" y="614" width="110" height="40" as="geometry" />
        </mxCell>
        <mxCell id="l8tHV9ch15DjAhhwgpem-75" value="" style="endArrow=block;dashed=1;endFill=0;endSize=12;html=1;rounded=0;" edge="1" parent="1">
          <mxGeometry width="160" relative="1" as="geometry">
            <mxPoint x="627.08" y="1123" as="sourcePoint" />
            <mxPoint x="754.7800000000001" y="1123" as="targetPoint" />
          </mxGeometry>
        </mxCell>
        <mxCell id="l8tHV9ch15DjAhhwgpem-76" value="" style="endArrow=classic;html=1;rounded=0;" edge="1" parent="1">
          <mxGeometry width="50" height="50" relative="1" as="geometry">
            <mxPoint x="337.35" y="559" as="sourcePoint" />
            <mxPoint x="340" y="730" as="targetPoint" />
            <Array as="points">
              <mxPoint x="379.65000000000003" y="559" />
              <mxPoint x="380" y="730" />
            </Array>
          </mxGeometry>
        </mxCell>
        <mxCell id="l8tHV9ch15DjAhhwgpem-77" value="Processing Logic" style="text;html=1;align=center;verticalAlign=middle;resizable=0;points=[];autosize=1;strokeColor=none;fillColor=none;" vertex="1" parent="1">
          <mxGeometry x="328.35" y="536" width="110" height="30" as="geometry" />
        </mxCell>
        <mxCell id="l8tHV9ch15DjAhhwgpem-78" value="Create record" style="text;html=1;align=center;verticalAlign=middle;resizable=0;points=[];autosize=1;strokeColor=none;fillColor=none;" vertex="1" parent="1">
          <mxGeometry x="639.5000000000001" y="1100" width="100" height="30" as="geometry" />
        </mxCell>
        <mxCell id="l8tHV9ch15DjAhhwgpem-79" value="" style="rounded=0;whiteSpace=wrap;html=1;direction=south;fillColor=#dae8fc;strokeColor=#6c8ebf;" vertex="1" parent="1">
          <mxGeometry x="753" y="643" width="10.7" height="115" as="geometry" />
        </mxCell>
        <mxCell id="l8tHV9ch15DjAhhwgpem-81" value="" style="endArrow=classic;html=1;rounded=0;" edge="1" parent="1">
          <mxGeometry width="50" height="50" relative="1" as="geometry">
            <mxPoint x="766.0500000000001" y="664" as="sourcePoint" />
            <mxPoint x="766.35" y="731" as="targetPoint" />
            <Array as="points">
              <mxPoint x="808.35" y="664" />
              <mxPoint x="808.35" y="731" />
            </Array>
          </mxGeometry>
        </mxCell>
        <mxCell id="l8tHV9ch15DjAhhwgpem-82" value="Insert record" style="text;html=1;align=center;verticalAlign=middle;resizable=0;points=[];autosize=1;strokeColor=none;fillColor=none;" vertex="1" parent="1">
          <mxGeometry x="757.7" y="643" width="90" height="30" as="geometry" />
        </mxCell>
        <mxCell id="l8tHV9ch15DjAhhwgpem-83" value="" style="endArrow=block;dashed=1;endFill=0;endSize=12;html=1;rounded=0;" edge="1" parent="1">
          <mxGeometry width="160" relative="1" as="geometry">
            <mxPoint x="750" y="755" as="sourcePoint" />
            <mxPoint x="336.75" y="755" as="targetPoint" />
          </mxGeometry>
        </mxCell>
        <mxCell id="l8tHV9ch15DjAhhwgpem-85" value="Return status" style="text;html=1;align=center;verticalAlign=middle;resizable=0;points=[];autosize=1;strokeColor=none;fillColor=none;" vertex="1" parent="1">
          <mxGeometry x="664.7" y="733" width="90" height="30" as="geometry" />
        </mxCell>
        <mxCell id="l8tHV9ch15DjAhhwgpem-86" value="" style="rounded=0;whiteSpace=wrap;html=1;direction=south;fillColor=#dae8fc;strokeColor=#6c8ebf;" vertex="1" parent="1">
          <mxGeometry x="474.3" y="782" width="10.7" height="128" as="geometry" />
        </mxCell>
        <mxCell id="l8tHV9ch15DjAhhwgpem-87" value="Send Message" style="html=1;verticalAlign=bottom;endArrow=block;curved=0;rounded=0;" edge="1" parent="1">
          <mxGeometry width="80" relative="1" as="geometry">
            <mxPoint x="337.85" y="790" as="sourcePoint" />
            <mxPoint x="472.15000000000003" y="790" as="targetPoint" />
          </mxGeometry>
        </mxCell>
        <mxCell id="l8tHV9ch15DjAhhwgpem-88" value="" style="endArrow=classic;html=1;rounded=0;" edge="1" parent="1">
          <mxGeometry width="50" height="50" relative="1" as="geometry">
            <mxPoint x="487" y="810" as="sourcePoint" />
            <mxPoint x="487" y="870" as="targetPoint" />
            <Array as="points">
              <mxPoint x="537" y="810" />
              <mxPoint x="537" y="870" />
            </Array>
          </mxGeometry>
        </mxCell>
        <mxCell id="l8tHV9ch15DjAhhwgpem-89" value="Processing queue" style="text;html=1;align=center;verticalAlign=middle;resizable=0;points=[];autosize=1;strokeColor=none;fillColor=none;" vertex="1" parent="1">
          <mxGeometry x="475.3" y="787" width="120" height="30" as="geometry" />
        </mxCell>
        <mxCell id="l8tHV9ch15DjAhhwgpem-90" value="" style="rounded=0;whiteSpace=wrap;html=1;direction=south;fillColor=#dae8fc;strokeColor=#6c8ebf;" vertex="1" parent="1">
          <mxGeometry x="616.38" y="889" width="10.7" height="281" as="geometry" />
        </mxCell>
        <mxCell id="l8tHV9ch15DjAhhwgpem-91" value="Send Message" style="html=1;verticalAlign=bottom;endArrow=block;curved=0;rounded=0;" edge="1" parent="1">
          <mxGeometry width="80" relative="1" as="geometry">
            <mxPoint x="486.38" y="900" as="sourcePoint" />
            <mxPoint x="616.3800000000001" y="900" as="targetPoint" />
          </mxGeometry>
        </mxCell>
        <mxCell id="l8tHV9ch15DjAhhwgpem-92" value="" style="endArrow=classic;html=1;rounded=0;" edge="1" parent="1">
          <mxGeometry width="50" height="50" relative="1" as="geometry">
            <mxPoint x="628.73" y="924" as="sourcePoint" />
            <mxPoint x="628.73" y="984" as="targetPoint" />
            <Array as="points">
              <mxPoint x="678.73" y="924" />
              <mxPoint x="678.73" y="984" />
            </Array>
          </mxGeometry>
        </mxCell>
        <mxCell id="l8tHV9ch15DjAhhwgpem-93" value="" style="rounded=0;whiteSpace=wrap;html=1;direction=south;fillColor=#dae8fc;strokeColor=#6c8ebf;" vertex="1" parent="1">
          <mxGeometry x="754" y="1012" width="10.7" height="158" as="geometry" />
        </mxCell>
        <mxCell id="l8tHV9ch15DjAhhwgpem-94" value="" style="endArrow=classic;html=1;rounded=0;" edge="1" parent="1">
          <mxGeometry width="50" height="50" relative="1" as="geometry">
            <mxPoint x="767.0500000000001" y="1033" as="sourcePoint" />
            <mxPoint x="767.35" y="1100" as="targetPoint" />
            <Array as="points">
              <mxPoint x="809.35" y="1033" />
              <mxPoint x="809.35" y="1100" />
            </Array>
          </mxGeometry>
        </mxCell>
        <mxCell id="l8tHV9ch15DjAhhwgpem-95" value="Insert record" style="text;html=1;align=center;verticalAlign=middle;resizable=0;points=[];autosize=1;strokeColor=none;fillColor=none;" vertex="1" parent="1">
          <mxGeometry x="758.7" y="1012" width="90" height="30" as="geometry" />
        </mxCell>
        <mxCell id="l8tHV9ch15DjAhhwgpem-97" value="" style="endArrow=block;dashed=1;endFill=0;endSize=12;html=1;rounded=0;" edge="1" parent="1">
          <mxGeometry width="160" relative="1" as="geometry">
            <mxPoint x="750" y="1160" as="sourcePoint" />
            <mxPoint x="630" y="1160" as="targetPoint" />
          </mxGeometry>
        </mxCell>
        <mxCell id="l8tHV9ch15DjAhhwgpem-99" value="Return status" style="text;html=1;align=center;verticalAlign=middle;resizable=0;points=[];autosize=1;strokeColor=none;fillColor=none;" vertex="1" parent="1">
          <mxGeometry x="644.5" y="1139" width="90" height="30" as="geometry" />
        </mxCell>
        <mxCell id="l8tHV9ch15DjAhhwgpem-101" value="" style="endArrow=classic;html=1;rounded=0;" edge="1" parent="1">
          <mxGeometry width="50" height="50" relative="1" as="geometry">
            <mxPoint x="320" y="830" as="sourcePoint" />
            <mxPoint x="160" y="830" as="targetPoint" />
          </mxGeometry>
        </mxCell>
        <mxCell id="l8tHV9ch15DjAhhwgpem-102" value="Return status" style="text;html=1;align=center;verticalAlign=middle;resizable=0;points=[];autosize=1;strokeColor=none;fillColor=none;" vertex="1" parent="1">
          <mxGeometry x="213.5" y="806" width="90" height="30" as="geometry" />
        </mxCell>
        <mxCell id="LoOViEUm-bCQS_mqGskE-4" value="" style="sketch=0;outlineConnect=0;fontColor=#232F3E;gradientColor=none;fillColor=#8C4FFF;strokeColor=none;dashed=0;verticalLabelPosition=bottom;verticalAlign=top;align=center;html=1;fontSize=12;fontStyle=0;aspect=fixed;pointerEvents=1;shape=mxgraph.aws4.gateway;" vertex="1" parent="1">
          <mxGeometry x="130" y="310" width="38.98" height="40" as="geometry" />
        </mxCell>
        <mxCell id="LoOViEUm-bCQS_mqGskE-5" value="ApiGateway Service" style="text;html=1;align=center;verticalAlign=middle;resizable=0;points=[];autosize=1;strokeColor=none;fillColor=none;" vertex="1" parent="1">
          <mxGeometry x="89" y="351" width="130" height="30" as="geometry" />
        </mxCell>
        <mxCell id="LoOViEUm-bCQS_mqGskE-6" value="" style="endArrow=none;dashed=1;html=1;dashPattern=1 3;strokeWidth=2;rounded=0;" edge="1" parent="1">
          <mxGeometry width="50" height="50" relative="1" as="geometry">
            <mxPoint x="151.31" y="1442" as="sourcePoint" />
            <mxPoint x="151" y="394" as="targetPoint" />
          </mxGeometry>
        </mxCell>
        <mxCell id="LoOViEUm-bCQS_mqGskE-7" value="" style="rounded=0;whiteSpace=wrap;html=1;direction=south;fillColor=#dae8fc;strokeColor=#6c8ebf;" vertex="1" parent="1">
          <mxGeometry x="146.28" y="540" width="10.7" height="110" as="geometry" />
        </mxCell>
        <mxCell id="LoOViEUm-bCQS_mqGskE-8" value="" style="endArrow=classic;html=1;rounded=0;" edge="1" parent="1">
          <mxGeometry width="50" height="50" relative="1" as="geometry">
            <mxPoint x="160" y="550" as="sourcePoint" />
            <mxPoint x="160" y="600" as="targetPoint" />
            <Array as="points">
              <mxPoint x="210" y="550" />
              <mxPoint x="210" y="600" />
            </Array>
          </mxGeometry>
        </mxCell>
        <mxCell id="LoOViEUm-bCQS_mqGskE-9" value="Processing Redirect" style="text;html=1;align=center;verticalAlign=middle;resizable=0;points=[];autosize=1;strokeColor=none;fillColor=none;" vertex="1" parent="1">
          <mxGeometry x="149.98000000000002" y="529" width="130" height="30" as="geometry" />
        </mxCell>
        <mxCell id="LoOViEUm-bCQS_mqGskE-10" value="" style="endArrow=classic;html=1;rounded=0;" edge="1" parent="1">
          <mxGeometry width="50" height="50" relative="1" as="geometry">
            <mxPoint x="-11.77" y="547" as="sourcePoint" />
            <mxPoint x="146.27999999999997" y="548" as="targetPoint" />
          </mxGeometry>
        </mxCell>
        <mxCell id="LoOViEUm-bCQS_mqGskE-11" value="create booking" style="text;html=1;align=center;verticalAlign=middle;resizable=0;points=[];autosize=1;strokeColor=none;fillColor=none;" vertex="1" parent="1">
          <mxGeometry x="7.610000000000024" y="526" width="100" height="30" as="geometry" />
        </mxCell>
        <mxCell id="LoOViEUm-bCQS_mqGskE-12" value="" style="endArrow=classic;html=1;rounded=0;" edge="1" parent="1">
          <mxGeometry width="50" height="50" relative="1" as="geometry">
            <mxPoint x="146.98" y="864" as="sourcePoint" />
            <mxPoint x="-13.02000000000001" y="864" as="targetPoint" />
          </mxGeometry>
        </mxCell>
        <mxCell id="LoOViEUm-bCQS_mqGskE-13" value="Return status" style="text;html=1;align=center;verticalAlign=middle;resizable=0;points=[];autosize=1;strokeColor=none;fillColor=none;" vertex="1" parent="1">
          <mxGeometry x="24.47999999999999" y="841" width="90" height="30" as="geometry" />
        </mxCell>
      </root>
    </mxGraphModel>
  </diagram>
  <diagram id="LNGZheSeHr2kZKuFCiPk" name="Sequence Diagram - Authentication">
    <mxGraphModel dx="1188" dy="790" grid="1" gridSize="10" guides="1" tooltips="1" connect="1" arrows="1" fold="1" page="1" pageScale="1" pageWidth="850" pageHeight="1100" math="0" shadow="0">
      <root>
        <mxCell id="0" />
        <mxCell id="1" parent="0" />
        <mxCell id="fXPFfPsqUkLdIKkMRdgL-1" value="" style="verticalLabelPosition=bottom;html=1;verticalAlign=top;align=center;strokeColor=none;fillColor=#00BEF2;shape=mxgraph.azure.service_bus_queues;pointerEvents=1;" vertex="1" parent="1">
          <mxGeometry x="149.99999999999997" y="50" width="42.5" height="50" as="geometry" />
        </mxCell>
        <mxCell id="fXPFfPsqUkLdIKkMRdgL-2" value="" style="image;aspect=fixed;perimeter=ellipsePerimeter;html=1;align=center;shadow=0;dashed=0;spacingTop=3;image=img/lib/active_directory/windows_server.svg;" vertex="1" parent="1">
          <mxGeometry x="149.99999999999997" y="120" width="41" height="50" as="geometry" />
        </mxCell>
        <mxCell id="fXPFfPsqUkLdIKkMRdgL-3" value="Service Queue" style="text;html=1;align=center;verticalAlign=middle;resizable=0;points=[];autosize=1;strokeColor=none;fillColor=none;" vertex="1" parent="1">
          <mxGeometry x="219.99999999999997" y="60" width="100" height="30" as="geometry" />
        </mxCell>
        <mxCell id="fXPFfPsqUkLdIKkMRdgL-4" value="Server" style="text;html=1;align=center;verticalAlign=middle;resizable=0;points=[];autosize=1;strokeColor=none;fillColor=none;" vertex="1" parent="1">
          <mxGeometry x="219.99999999999997" y="130" width="60" height="30" as="geometry" />
        </mxCell>
        <mxCell id="fXPFfPsqUkLdIKkMRdgL-5" value="" style="image;aspect=fixed;perimeter=ellipsePerimeter;html=1;align=center;shadow=0;dashed=0;spacingTop=3;image=img/lib/active_directory/database_server.svg;" vertex="1" parent="1">
          <mxGeometry x="379.47" y="50" width="41" height="50" as="geometry" />
        </mxCell>
        <mxCell id="fXPFfPsqUkLdIKkMRdgL-6" value="Database" style="text;html=1;align=center;verticalAlign=middle;resizable=0;points=[];autosize=1;strokeColor=none;fillColor=none;" vertex="1" parent="1">
          <mxGeometry x="448.47" y="60" width="70" height="30" as="geometry" />
        </mxCell>
        <mxCell id="fXPFfPsqUkLdIKkMRdgL-7" value="" style="sketch=0;outlineConnect=0;fontColor=#232F3E;gradientColor=none;fillColor=#232F3D;strokeColor=none;dashed=0;verticalLabelPosition=bottom;verticalAlign=top;align=center;html=1;fontSize=12;fontStyle=0;aspect=fixed;pointerEvents=1;shape=mxgraph.aws4.client;" vertex="1" parent="1">
          <mxGeometry x="373.47" y="125" width="41.06" height="40" as="geometry" />
        </mxCell>
        <mxCell id="fXPFfPsqUkLdIKkMRdgL-8" value="Client UI" style="text;html=1;align=center;verticalAlign=middle;resizable=0;points=[];autosize=1;strokeColor=none;fillColor=none;" vertex="1" parent="1">
          <mxGeometry x="448.47" y="130" width="70" height="30" as="geometry" />
        </mxCell>
        <mxCell id="fXPFfPsqUkLdIKkMRdgL-9" value="" style="image;sketch=0;aspect=fixed;html=1;points=[];align=center;fontSize=12;image=img/lib/mscae/Person.svg;" vertex="1" parent="1">
          <mxGeometry x="578.47" y="55" width="29.6" height="40" as="geometry" />
        </mxCell>
        <mxCell id="fXPFfPsqUkLdIKkMRdgL-10" value="User" style="text;html=1;align=center;verticalAlign=middle;resizable=0;points=[];autosize=1;strokeColor=none;fillColor=none;" vertex="1" parent="1">
          <mxGeometry x="641.24" y="60" width="50" height="30" as="geometry" />
        </mxCell>
        <mxCell id="_chAq3FzX-9rXDciARHa-1" value="" style="verticalLabelPosition=bottom;verticalAlign=top;html=1;shape=mxgraph.basic.patternFillRect;fillStyle=diagRev;step=5;fillStrokeWidth=0.2;fillStrokeColor=#dddddd;container=1;" vertex="1" parent="1">
          <mxGeometry x="90" y="10" width="630" height="220" as="geometry" />
        </mxCell>
        <mxCell id="_chAq3FzX-9rXDciARHa-3" value="" style="image;aspect=fixed;perimeter=ellipsePerimeter;html=1;align=center;shadow=0;dashed=0;spacingTop=3;image=img/lib/active_directory/windows_server.svg;" vertex="1" parent="_chAq3FzX-9rXDciARHa-1">
          <mxGeometry x="59.99999999999997" y="110" width="41" height="50" as="geometry" />
        </mxCell>
        <mxCell id="_chAq3FzX-9rXDciARHa-4" value="Redis Service" style="text;html=1;align=center;verticalAlign=middle;resizable=0;points=[];autosize=1;strokeColor=none;fillColor=none;" vertex="1" parent="_chAq3FzX-9rXDciARHa-1">
          <mxGeometry x="129.99999999999997" y="50" width="100" height="30" as="geometry" />
        </mxCell>
        <mxCell id="_chAq3FzX-9rXDciARHa-5" value="Server" style="text;html=1;align=center;verticalAlign=middle;resizable=0;points=[];autosize=1;strokeColor=none;fillColor=none;" vertex="1" parent="_chAq3FzX-9rXDciARHa-1">
          <mxGeometry x="129.99999999999997" y="120" width="60" height="30" as="geometry" />
        </mxCell>
        <mxCell id="_chAq3FzX-9rXDciARHa-6" value="" style="image;aspect=fixed;perimeter=ellipsePerimeter;html=1;align=center;shadow=0;dashed=0;spacingTop=3;image=img/lib/active_directory/database_server.svg;" vertex="1" parent="_chAq3FzX-9rXDciARHa-1">
          <mxGeometry x="289.47" y="40" width="41" height="50" as="geometry" />
        </mxCell>
        <mxCell id="_chAq3FzX-9rXDciARHa-7" value="Database" style="text;html=1;align=center;verticalAlign=middle;resizable=0;points=[];autosize=1;strokeColor=none;fillColor=none;" vertex="1" parent="_chAq3FzX-9rXDciARHa-1">
          <mxGeometry x="358.47" y="50" width="70" height="30" as="geometry" />
        </mxCell>
        <mxCell id="_chAq3FzX-9rXDciARHa-8" value="" style="sketch=0;outlineConnect=0;fontColor=#232F3E;gradientColor=none;fillColor=#232F3D;strokeColor=none;dashed=0;verticalLabelPosition=bottom;verticalAlign=top;align=center;html=1;fontSize=12;fontStyle=0;aspect=fixed;pointerEvents=1;shape=mxgraph.aws4.client;" vertex="1" parent="_chAq3FzX-9rXDciARHa-1">
          <mxGeometry x="283.47" y="115" width="41.06" height="40" as="geometry" />
        </mxCell>
        <mxCell id="_chAq3FzX-9rXDciARHa-9" value="Client UI" style="text;html=1;align=center;verticalAlign=middle;resizable=0;points=[];autosize=1;strokeColor=none;fillColor=none;" vertex="1" parent="_chAq3FzX-9rXDciARHa-1">
          <mxGeometry x="358.47" y="120" width="70" height="30" as="geometry" />
        </mxCell>
        <mxCell id="_chAq3FzX-9rXDciARHa-10" value="" style="image;sketch=0;aspect=fixed;html=1;points=[];align=center;fontSize=12;image=img/lib/mscae/Person.svg;" vertex="1" parent="_chAq3FzX-9rXDciARHa-1">
          <mxGeometry x="488.47" y="45" width="29.6" height="40" as="geometry" />
        </mxCell>
        <mxCell id="_chAq3FzX-9rXDciARHa-11" value="User" style="text;html=1;align=center;verticalAlign=middle;resizable=0;points=[];autosize=1;strokeColor=none;fillColor=none;" vertex="1" parent="_chAq3FzX-9rXDciARHa-1">
          <mxGeometry x="551.24" y="50" width="50" height="30" as="geometry" />
        </mxCell>
        <mxCell id="_chAq3FzX-9rXDciARHa-12" value="" style="image;sketch=0;aspect=fixed;html=1;points=[];align=center;fontSize=12;image=img/lib/mscae/Cache_Redis_Product.svg;" vertex="1" parent="_chAq3FzX-9rXDciARHa-1">
          <mxGeometry x="60" y="43" width="50" height="42" as="geometry" />
        </mxCell>
        <mxCell id="_UsplEDx8vGGFbFq7w_y-1" value="" style="sketch=0;outlineConnect=0;fontColor=#232F3E;gradientColor=none;fillColor=#8C4FFF;strokeColor=none;dashed=0;verticalLabelPosition=bottom;verticalAlign=top;align=center;html=1;fontSize=12;fontStyle=0;aspect=fixed;pointerEvents=1;shape=mxgraph.aws4.gateway;" vertex="1" parent="1">
          <mxGeometry x="568.91" y="120" width="48.72" height="50" as="geometry" />
        </mxCell>
        <mxCell id="_UsplEDx8vGGFbFq7w_y-2" value="Gateway" style="text;html=1;align=center;verticalAlign=middle;resizable=0;points=[];autosize=1;strokeColor=none;fillColor=none;" vertex="1" parent="1">
          <mxGeometry x="641.24" y="131" width="70" height="30" as="geometry" />
        </mxCell>
        <mxCell id="XbE5NGVXZk7l1eZAR4d4-1" value="" style="image;aspect=fixed;perimeter=ellipsePerimeter;html=1;align=center;shadow=0;dashed=0;spacingTop=3;image=img/lib/active_directory/windows_server.svg;" vertex="1" parent="1">
          <mxGeometry x="517.57" y="300" width="41" height="50" as="geometry" />
        </mxCell>
        <mxCell id="XbE5NGVXZk7l1eZAR4d4-2" value="" style="image;sketch=0;aspect=fixed;html=1;points=[];align=center;fontSize=12;image=img/lib/mscae/Person.svg;" vertex="1" parent="1">
          <mxGeometry x="50.69" y="305" width="29.6" height="40" as="geometry" />
        </mxCell>
        <mxCell id="XbE5NGVXZk7l1eZAR4d4-3" value="" style="sketch=0;outlineConnect=0;fontColor=#232F3E;gradientColor=none;fillColor=#232F3D;strokeColor=none;dashed=0;verticalLabelPosition=bottom;verticalAlign=top;align=center;html=1;fontSize=12;fontStyle=0;aspect=fixed;pointerEvents=1;shape=mxgraph.aws4.client;" vertex="1" parent="1">
          <mxGeometry x="190.69" y="305" width="41.06" height="40" as="geometry" />
        </mxCell>
        <mxCell id="XbE5NGVXZk7l1eZAR4d4-6" value="" style="image;aspect=fixed;perimeter=ellipsePerimeter;html=1;align=center;shadow=0;dashed=0;spacingTop=3;image=img/lib/active_directory/database_server.svg;" vertex="1" parent="1">
          <mxGeometry x="784.5" y="295" width="41" height="50" as="geometry" />
        </mxCell>
        <mxCell id="XbE5NGVXZk7l1eZAR4d4-7" value="User" style="text;html=1;align=center;verticalAlign=middle;resizable=0;points=[];autosize=1;strokeColor=none;fillColor=none;" vertex="1" parent="1">
          <mxGeometry x="40.49000000000001" y="346" width="50" height="30" as="geometry" />
        </mxCell>
        <mxCell id="XbE5NGVXZk7l1eZAR4d4-8" value="Client UI" style="text;html=1;align=center;verticalAlign=middle;resizable=0;points=[];autosize=1;strokeColor=none;fillColor=none;" vertex="1" parent="1">
          <mxGeometry x="176.22000000000003" y="346" width="70" height="30" as="geometry" />
        </mxCell>
        <mxCell id="XbE5NGVXZk7l1eZAR4d4-9" value="Database" style="text;html=1;align=center;verticalAlign=middle;resizable=0;points=[];autosize=1;strokeColor=none;fillColor=none;" vertex="1" parent="1">
          <mxGeometry x="770" y="346" width="70" height="30" as="geometry" />
        </mxCell>
        <mxCell id="XbE5NGVXZk7l1eZAR4d4-10" value="Redis Cache Service" style="text;html=1;align=center;verticalAlign=middle;resizable=0;points=[];autosize=1;strokeColor=none;fillColor=none;" vertex="1" parent="1">
          <mxGeometry x="617.63" y="345" width="140" height="30" as="geometry" />
        </mxCell>
        <mxCell id="XbE5NGVXZk7l1eZAR4d4-11" value="Authentication Service" style="text;html=1;align=center;verticalAlign=middle;resizable=0;points=[];autosize=1;strokeColor=none;fillColor=none;" vertex="1" parent="1">
          <mxGeometry x="468.07" y="345" width="140" height="30" as="geometry" />
        </mxCell>
        <mxCell id="XbE5NGVXZk7l1eZAR4d4-13" value="" style="sketch=0;outlineConnect=0;fontColor=#232F3E;gradientColor=none;fillColor=#8C4FFF;strokeColor=none;dashed=0;verticalLabelPosition=bottom;verticalAlign=top;align=center;html=1;fontSize=12;fontStyle=0;aspect=fixed;pointerEvents=1;shape=mxgraph.aws4.gateway;" vertex="1" parent="1">
          <mxGeometry x="360.49" y="305" width="38.98" height="40" as="geometry" />
        </mxCell>
        <mxCell id="XbE5NGVXZk7l1eZAR4d4-14" value="ApiGateway Service" style="text;html=1;align=center;verticalAlign=middle;resizable=0;points=[];autosize=1;strokeColor=none;fillColor=none;" vertex="1" parent="1">
          <mxGeometry x="319.49" y="345" width="130" height="30" as="geometry" />
        </mxCell>
        <mxCell id="Kg61O_UMdvqSEBozzePs-1" value="" style="endArrow=none;dashed=1;html=1;dashPattern=1 3;strokeWidth=2;rounded=0;" edge="1" parent="1">
          <mxGeometry width="50" height="50" relative="1" as="geometry">
            <mxPoint x="210.19" y="1435" as="sourcePoint" />
            <mxPoint x="209.88" y="387" as="targetPoint" />
          </mxGeometry>
        </mxCell>
        <mxCell id="Kg61O_UMdvqSEBozzePs-2" value="" style="endArrow=none;dashed=1;html=1;dashPattern=1 3;strokeWidth=2;rounded=0;" edge="1" parent="1">
          <mxGeometry width="50" height="50" relative="1" as="geometry">
            <mxPoint x="60.19" y="1435" as="sourcePoint" />
            <mxPoint x="60.19" y="395" as="targetPoint" />
          </mxGeometry>
        </mxCell>
        <mxCell id="Kg61O_UMdvqSEBozzePs-3" value="" style="endArrow=classic;html=1;rounded=0;" edge="1" parent="1">
          <mxGeometry width="50" height="50" relative="1" as="geometry">
            <mxPoint x="71.19" y="425" as="sourcePoint" />
            <mxPoint x="201.19" y="425" as="targetPoint" />
          </mxGeometry>
        </mxCell>
        <mxCell id="Kg61O_UMdvqSEBozzePs-4" value="" style="rounded=0;whiteSpace=wrap;html=1;direction=south;fillColor=#dae8fc;strokeColor=#6c8ebf;" vertex="1" parent="1">
          <mxGeometry x="205.19" y="418" width="10.7" height="127" as="geometry" />
        </mxCell>
        <mxCell id="Kg61O_UMdvqSEBozzePs-5" value="" style="endArrow=classic;html=1;rounded=0;" edge="1" parent="1">
          <mxGeometry width="50" height="50" relative="1" as="geometry">
            <mxPoint x="218.89" y="448" as="sourcePoint" />
            <mxPoint x="219.19" y="515" as="targetPoint" />
            <Array as="points">
              <mxPoint x="261.19" y="448" />
              <mxPoint x="261.19" y="515" />
            </Array>
          </mxGeometry>
        </mxCell>
        <mxCell id="Kg61O_UMdvqSEBozzePs-6" value="Action Booking" style="text;html=1;align=center;verticalAlign=middle;resizable=0;points=[];autosize=1;strokeColor=none;fillColor=none;" vertex="1" parent="1">
          <mxGeometry x="83.19" y="399" width="100" height="30" as="geometry" />
        </mxCell>
        <mxCell id="Kg61O_UMdvqSEBozzePs-7" value="Validate Input&lt;br&gt;information" style="text;html=1;align=center;verticalAlign=middle;resizable=0;points=[];autosize=1;strokeColor=none;fillColor=none;" vertex="1" parent="1">
          <mxGeometry x="213.89" y="411" width="100" height="40" as="geometry" />
        </mxCell>
        <mxCell id="Kg61O_UMdvqSEBozzePs-8" value="" style="endArrow=none;dashed=1;html=1;dashPattern=1 3;strokeWidth=2;rounded=0;" edge="1" parent="1">
          <mxGeometry width="50" height="50" relative="1" as="geometry">
            <mxPoint x="380.8" y="1437" as="sourcePoint" />
            <mxPoint x="380.49" y="389" as="targetPoint" />
          </mxGeometry>
        </mxCell>
        <mxCell id="Kg61O_UMdvqSEBozzePs-9" value="" style="rounded=0;whiteSpace=wrap;html=1;direction=south;fillColor=#dae8fc;strokeColor=#6c8ebf;" vertex="1" parent="1">
          <mxGeometry x="376.77" y="535" width="10.7" height="110" as="geometry" />
        </mxCell>
        <mxCell id="Kg61O_UMdvqSEBozzePs-10" value="" style="endArrow=classic;html=1;rounded=0;" edge="1" parent="1">
          <mxGeometry width="50" height="50" relative="1" as="geometry">
            <mxPoint x="390.49" y="545" as="sourcePoint" />
            <mxPoint x="390.49" y="595" as="targetPoint" />
            <Array as="points">
              <mxPoint x="440.49" y="545" />
              <mxPoint x="440.49" y="595" />
            </Array>
          </mxGeometry>
        </mxCell>
        <mxCell id="Kg61O_UMdvqSEBozzePs-11" value="Processing Redirect" style="text;html=1;align=center;verticalAlign=middle;resizable=0;points=[];autosize=1;strokeColor=none;fillColor=none;" vertex="1" parent="1">
          <mxGeometry x="380.47" y="524" width="130" height="30" as="geometry" />
        </mxCell>
        <mxCell id="Kg61O_UMdvqSEBozzePs-12" value="" style="endArrow=classic;html=1;rounded=0;" edge="1" parent="1">
          <mxGeometry width="50" height="50" relative="1" as="geometry">
            <mxPoint x="218.72" y="542" as="sourcePoint" />
            <mxPoint x="376.77" y="543" as="targetPoint" />
          </mxGeometry>
        </mxCell>
        <mxCell id="Kg61O_UMdvqSEBozzePs-13" value="Login request" style="text;html=1;align=center;verticalAlign=middle;resizable=0;points=[];autosize=1;strokeColor=none;fillColor=none;" vertex="1" parent="1">
          <mxGeometry x="238.10000000000002" y="520" width="100" height="30" as="geometry" />
        </mxCell>
        <mxCell id="Kg61O_UMdvqSEBozzePs-14" value="" style="image;sketch=0;aspect=fixed;html=1;points=[];align=center;fontSize=12;image=img/lib/mscae/Cache_Redis_Product.svg;" vertex="1" parent="1">
          <mxGeometry x="655.24" y="304" width="50" height="42" as="geometry" />
        </mxCell>
        <mxCell id="Kg61O_UMdvqSEBozzePs-15" value="" style="endArrow=none;dashed=1;html=1;dashPattern=1 3;strokeWidth=2;rounded=0;" edge="1" parent="1">
          <mxGeometry width="50" height="50" relative="1" as="geometry">
            <mxPoint x="537.2200000000001" y="1437" as="sourcePoint" />
            <mxPoint x="536.9100000000001" y="389" as="targetPoint" />
          </mxGeometry>
        </mxCell>
        <mxCell id="Kg61O_UMdvqSEBozzePs-16" value="" style="endArrow=none;dashed=1;html=1;dashPattern=1 3;strokeWidth=2;rounded=0;" edge="1" parent="1">
          <mxGeometry width="50" height="50" relative="1" as="geometry">
            <mxPoint x="681.3900000000001" y="1437" as="sourcePoint" />
            <mxPoint x="681.08" y="389" as="targetPoint" />
          </mxGeometry>
        </mxCell>
        <mxCell id="Kg61O_UMdvqSEBozzePs-18" value="" style="endArrow=none;dashed=1;html=1;dashPattern=1 3;strokeWidth=2;rounded=0;" edge="1" parent="1">
          <mxGeometry width="50" height="50" relative="1" as="geometry">
            <mxPoint x="801.1600000000001" y="1436" as="sourcePoint" />
            <mxPoint x="800.85" y="388" as="targetPoint" />
          </mxGeometry>
        </mxCell>
        <mxCell id="Kg61O_UMdvqSEBozzePs-19" value="" style="rounded=0;whiteSpace=wrap;html=1;direction=south;fillColor=#dae8fc;strokeColor=#6c8ebf;" vertex="1" parent="1">
          <mxGeometry x="531.99" y="625" width="10.7" height="385" as="geometry" />
        </mxCell>
        <mxCell id="9vU4EZqeKpQuEIKogse7-1" value="" style="endArrow=classic;html=1;rounded=0;" edge="1" parent="1">
          <mxGeometry width="50" height="50" relative="1" as="geometry">
            <mxPoint x="389.49" y="630" as="sourcePoint" />
            <mxPoint x="530" y="630" as="targetPoint" />
          </mxGeometry>
        </mxCell>
        <mxCell id="9vU4EZqeKpQuEIKogse7-2" value="Redirect login&lt;br&gt;&amp;nbsp;request" style="text;html=1;align=center;verticalAlign=middle;resizable=0;points=[];autosize=1;strokeColor=none;fillColor=none;" vertex="1" parent="1">
          <mxGeometry x="412.47" y="610" width="100" height="40" as="geometry" />
        </mxCell>
        <mxCell id="9vU4EZqeKpQuEIKogse7-4" value="" style="endArrow=block;dashed=1;endFill=0;endSize=12;html=1;rounded=0;" edge="1" parent="1">
          <mxGeometry width="160" relative="1" as="geometry">
            <mxPoint x="545.24" y="650" as="sourcePoint" />
            <mxPoint x="790" y="650" as="targetPoint" />
          </mxGeometry>
        </mxCell>
        <mxCell id="9vU4EZqeKpQuEIKogse7-5" value="" style="rounded=0;whiteSpace=wrap;html=1;direction=south;fillColor=#dae8fc;strokeColor=#6c8ebf;" vertex="1" parent="1">
          <mxGeometry x="795" y="642" width="10.7" height="110" as="geometry" />
        </mxCell>
        <mxCell id="9vU4EZqeKpQuEIKogse7-7" value="Get data" style="text;html=1;align=center;verticalAlign=middle;resizable=0;points=[];autosize=1;strokeColor=none;fillColor=none;" vertex="1" parent="1">
          <mxGeometry x="547.63" y="628" width="70" height="30" as="geometry" />
        </mxCell>
        <mxCell id="9vU4EZqeKpQuEIKogse7-8" value="" style="endArrow=classic;html=1;rounded=0;" edge="1" parent="1">
          <mxGeometry width="50" height="50" relative="1" as="geometry">
            <mxPoint x="808.02" y="661" as="sourcePoint" />
            <mxPoint x="808.02" y="711" as="targetPoint" />
            <Array as="points">
              <mxPoint x="858.02" y="661" />
              <mxPoint x="858.02" y="711" />
            </Array>
          </mxGeometry>
        </mxCell>
        <mxCell id="9vU4EZqeKpQuEIKogse7-9" value="Processing data" style="text;html=1;align=center;verticalAlign=middle;resizable=0;points=[];autosize=1;strokeColor=none;fillColor=none;" vertex="1" parent="1">
          <mxGeometry x="808" y="640" width="110" height="30" as="geometry" />
        </mxCell>
        <mxCell id="9vU4EZqeKpQuEIKogse7-10" value="" style="endArrow=block;dashed=1;endFill=0;endSize=12;html=1;rounded=0;" edge="1" parent="1">
          <mxGeometry width="160" relative="1" as="geometry">
            <mxPoint x="792.26" y="731" as="sourcePoint" />
            <mxPoint x="544.63" y="731" as="targetPoint" />
          </mxGeometry>
        </mxCell>
        <mxCell id="9vU4EZqeKpQuEIKogse7-11" value="Return data" style="text;html=1;align=center;verticalAlign=middle;resizable=0;points=[];autosize=1;strokeColor=none;fillColor=none;" vertex="1" parent="1">
          <mxGeometry x="704.5" y="705" width="90" height="30" as="geometry" />
        </mxCell>
        <mxCell id="9vU4EZqeKpQuEIKogse7-15" value="" style="endArrow=classic;html=1;rounded=0;" edge="1" parent="1">
          <mxGeometry width="50" height="50" relative="1" as="geometry">
            <mxPoint x="545.65" y="775" as="sourcePoint" />
            <mxPoint x="545.65" y="825" as="targetPoint" />
            <Array as="points">
              <mxPoint x="595.65" y="775" />
              <mxPoint x="595.65" y="825" />
            </Array>
          </mxGeometry>
        </mxCell>
        <mxCell id="9vU4EZqeKpQuEIKogse7-16" value="Processing data" style="text;html=1;align=center;verticalAlign=middle;resizable=0;points=[];autosize=1;strokeColor=none;fillColor=none;" vertex="1" parent="1">
          <mxGeometry x="536.63" y="754" width="110" height="30" as="geometry" />
        </mxCell>
        <mxCell id="9vU4EZqeKpQuEIKogse7-17" value="" style="endArrow=classic;html=1;rounded=0;" edge="1" parent="1">
          <mxGeometry width="50" height="50" relative="1" as="geometry">
            <mxPoint x="547.29" y="851" as="sourcePoint" />
            <mxPoint x="547.29" y="901" as="targetPoint" />
            <Array as="points">
              <mxPoint x="597.29" y="851" />
              <mxPoint x="597.29" y="901" />
            </Array>
          </mxGeometry>
        </mxCell>
        <mxCell id="9vU4EZqeKpQuEIKogse7-18" value="Generate token" style="text;html=1;align=center;verticalAlign=middle;resizable=0;points=[];autosize=1;strokeColor=none;fillColor=none;" vertex="1" parent="1">
          <mxGeometry x="537.27" y="830" width="110" height="30" as="geometry" />
        </mxCell>
        <mxCell id="9vU4EZqeKpQuEIKogse7-19" value="" style="rounded=0;whiteSpace=wrap;html=1;direction=south;fillColor=#dae8fc;strokeColor=#6c8ebf;" vertex="1" parent="1">
          <mxGeometry x="676.8" y="920" width="10.7" height="90" as="geometry" />
        </mxCell>
        <mxCell id="9vU4EZqeKpQuEIKogse7-20" value="" style="endArrow=block;dashed=1;endFill=0;endSize=12;html=1;rounded=0;" edge="1" parent="1">
          <mxGeometry width="160" relative="1" as="geometry">
            <mxPoint x="546.86" y="933" as="sourcePoint" />
            <mxPoint x="673" y="933" as="targetPoint" />
          </mxGeometry>
        </mxCell>
        <mxCell id="9vU4EZqeKpQuEIKogse7-21" value="Set cache token" style="text;html=1;align=center;verticalAlign=middle;resizable=0;points=[];autosize=1;strokeColor=none;fillColor=none;" vertex="1" parent="1">
          <mxGeometry x="547.63" y="908" width="110" height="30" as="geometry" />
        </mxCell>
        <mxCell id="9vU4EZqeKpQuEIKogse7-22" value="" style="endArrow=classic;html=1;rounded=0;" edge="1" parent="1">
          <mxGeometry width="50" height="50" relative="1" as="geometry">
            <mxPoint x="691.26" y="944" as="sourcePoint" />
            <mxPoint x="691.26" y="994" as="targetPoint" />
            <Array as="points">
              <mxPoint x="741.26" y="944" />
              <mxPoint x="741.26" y="994" />
            </Array>
          </mxGeometry>
        </mxCell>
        <mxCell id="9vU4EZqeKpQuEIKogse7-23" value="Processing&lt;br&gt;&amp;nbsp;store token" style="text;html=1;align=center;verticalAlign=middle;resizable=0;points=[];autosize=1;strokeColor=none;fillColor=none;" vertex="1" parent="1">
          <mxGeometry x="676.8" y="908" width="90" height="40" as="geometry" />
        </mxCell>
        <mxCell id="u2z0Zn3T2de5daKDJhTO-1" value="" style="endArrow=classic;html=1;rounded=0;" edge="1" parent="1">
          <mxGeometry width="50" height="50" relative="1" as="geometry">
            <mxPoint x="527.98" y="1001" as="sourcePoint" />
            <mxPoint x="387.47" y="1001" as="targetPoint" />
          </mxGeometry>
        </mxCell>
        <mxCell id="u2z0Zn3T2de5daKDJhTO-2" value="Return respone" style="text;html=1;align=center;verticalAlign=middle;resizable=0;points=[];autosize=1;strokeColor=none;fillColor=none;" vertex="1" parent="1">
          <mxGeometry x="408.97" y="980" width="110" height="30" as="geometry" />
        </mxCell>
        <mxCell id="u2z0Zn3T2de5daKDJhTO-3" value="" style="endArrow=classic;html=1;rounded=0;" edge="1" parent="1">
          <mxGeometry width="50" height="50" relative="1" as="geometry">
            <mxPoint x="373.47" y="1041" as="sourcePoint" />
            <mxPoint x="220" y="1040" as="targetPoint" />
          </mxGeometry>
        </mxCell>
        <mxCell id="u2z0Zn3T2de5daKDJhTO-4" value="Return respone" style="text;html=1;align=center;verticalAlign=middle;resizable=0;points=[];autosize=1;strokeColor=none;fillColor=none;" vertex="1" parent="1">
          <mxGeometry x="254.46000000000004" y="1020" width="110" height="30" as="geometry" />
        </mxCell>
      </root>
    </mxGraphModel>
  </diagram>
</mxfile>
